<?xml version="1.0" encoding="UTF-8"?> <svg xmlns="http://www.w3.org/2000/svg" xmlns:xlink="http://www.w3.org/1999/xlink" version="1.1" id="Layer_1" x="0px" y="0px" viewBox="0 0 414 414" style="enable-background:new 0 0 414 414;" xml:space="preserve"> <style type="text/css"> .st0{fill:#312963;stroke:#E3E0EB;stroke-miterlimit:10;} </style> <g> <path class="st0" d="M328.8,236.7h-36.9c-10.7,0-13.7-1.2-13.7-13.9v-78.5h-55.9c-1.2,0-2.1,0.9-2.1,2.1v79.3 c0,4.1-2.5,6.8-6.8,6.8h-24.5c-3.8,0-6.8-3.1-6.8-6.8v-41.9c0-1.2-0.9-2.1-2.1-2.1h-54V224c0,10-2.7,12.6-13.1,12.6H85.2 c-2.1,0-3.7,1.7-3.7,3.7v29.4h42.8c1.6,0,2.9-1.3,2.9-2.9v-18.7c0-4.8,2.1-8.7,7-8.7h42.2c5.6,0,4.5,4.5,4.5,10.1v5.1 c0,2.7,2.2,4.8,4.8,4.8h31c2.7,0,4.8-2.2,4.8-4.8v-5.1c0-5.6-0.2-10.1,5.3-10.1H270c4.8,0,7,3.9,7,8.7v18.7c0,1.6,1.3,2.9,2.9,2.9 h52.8v-29.4C332.5,238.3,330.8,236.7,328.8,236.7z"></path> </g> </svg> 